<svg width="365" height="95" viewBox="0 0 365 95" fill="none" xmlns="http://www.w3.org/2000/svg">
<path d="M291.167 34C292.642 34 294.085 34.2098 295.495 34.624H295.494C296.556 34.9259 297.52 35.3178 298.385 35.8008C299.107 36.2044 299.333 37.0771 299.03 37.7871C298.627 38.7332 297.502 39.0433 296.645 38.6094C295.966 38.2657 295.26 37.9857 294.528 37.7715C293.37 37.4391 292.25 37.2706 291.167 37.2705C289.012 37.2705 287.477 37.6886 286.492 38.4365L286.493 38.4375C285.511 39.1961 285.042 40.1411 285.042 41.3125C285.042 42.2057 285.303 42.8781 285.792 43.377C286.34 43.93 287.038 44.3561 287.893 44.6523H287.894C288.799 44.9679 290.022 45.3178 291.555 45.7012C293.177 46.0952 294.54 46.4891 295.629 46.8857L296.079 47.0557C297.287 47.5321 298.313 48.2503 299.148 49.2139H299.147C300.039 50.219 300.458 51.556 300.458 53.167C300.458 54.5289 300.086 55.7746 299.356 56.8975L299.355 56.8994C298.609 58.0387 297.482 58.923 296.012 59.5625L296.009 59.5645C294.523 60.1973 292.722 60.5 290.625 60.5C288.706 60.5 286.869 60.1944 285.105 59.5762V59.5752C283.679 59.0791 282.489 58.4448 281.559 57.6641C280.999 57.1941 280.919 56.4221 281.221 55.8301C281.724 54.8442 282.988 54.7022 283.802 55.2598C284.461 55.712 285.237 56.1086 286.131 56.4473C287.586 56.984 289.085 57.25 290.625 57.25C292.813 57.25 294.37 56.8491 295.371 56.1172C296.378 55.3704 296.854 54.4475 296.854 53.3125C296.854 52.4253 296.586 51.7659 296.09 51.2764L295.874 51.0791C295.357 50.6323 294.739 50.2754 294.017 50.0117L294.01 50.0088C293.164 49.6867 291.964 49.3388 290.404 48.9658L290.396 48.9639C288.497 48.4772 286.971 48.0133 285.82 47.5713L285.817 47.5693C284.62 47.0983 283.585 46.3813 282.729 45.415L282.726 45.4102C281.835 44.3794 281.417 43.0173 281.417 41.375C281.417 40.0219 281.776 38.7818 282.495 37.668C283.225 36.5278 284.335 35.6371 285.794 34.9814C287.263 34.3189 289.063 34 291.167 34ZM220.229 34C221.138 34.0002 221.875 34.7368 221.875 35.6455C221.875 36.5544 221.138 37.2918 220.229 37.292H208.833C208.005 37.2922 207.333 37.9637 207.333 38.792V43.708C207.333 44.5363 208.005 45.2078 208.833 45.208H218.667C219.564 45.2082 220.292 45.9358 220.292 46.833C220.292 47.7304 219.564 48.4578 218.667 48.458H208.833C208.005 48.4582 207.333 49.1298 207.333 49.958V55.2705C207.333 56.0988 208.005 56.7703 208.833 56.7705H220.771C221.679 56.7705 222.417 57.508 222.417 58.417C222.417 59.3258 221.679 60.0625 220.771 60.0625H206.188C204.807 60.0625 203.688 58.9432 203.688 57.5625V36.5C203.688 35.1193 204.807 34 206.188 34H220.229ZM248.57 34C249.842 34.0003 250.624 35.3932 249.961 36.4785L241.283 50.6768C241.139 50.9122 241.063 51.183 241.062 51.459V58.25C241.062 59.2509 240.251 60.0623 239.25 60.0625C238.249 60.0623 237.438 59.2509 237.438 58.25V51.459C237.437 51.1831 237.362 50.9122 237.218 50.6768L228.614 36.5996C227.918 35.4611 228.738 34 230.072 34C230.668 34.0002 231.22 34.3103 231.53 34.8184L238.908 46.9053C239.103 47.2241 239.566 47.2241 239.761 46.9053L247.181 34.7783C247.477 34.2948 248.003 34.0001 248.57 34ZM272.625 34C273.534 34.0002 274.27 34.7368 274.271 35.6455C274.271 36.5544 273.534 37.2918 272.625 37.292H261.229C260.4 37.2923 259.729 37.9638 259.729 38.792V43.708C259.729 44.5362 260.4 45.2077 261.229 45.208H271.062C271.96 45.2082 272.687 45.9358 272.688 46.833C272.688 47.7304 271.96 48.4578 271.062 48.458H261.229C260.4 48.4583 259.729 49.1299 259.729 49.958V55.2705C259.729 56.0987 260.4 56.7702 261.229 56.7705H273.166C274.075 56.7705 274.812 57.508 274.812 58.417C274.812 59.3258 274.075 60.0625 273.166 60.0625H258.583C257.202 60.0624 256.083 58.9431 256.083 57.5625V36.5C256.083 35.1194 257.202 34.0001 258.583 34H272.625Z" fill="#0085D3"/>
<path d="M291.167 34L291.167 33.875L291.167 33.875L291.167 34ZM295.495 34.624V34.749L295.53 34.5041L295.495 34.624ZM295.494 34.624V34.499L295.46 34.7443L295.494 34.624ZM298.385 35.8008L298.446 35.6917L298.446 35.6916L298.385 35.8008ZM299.03 37.7871L299.145 37.8361L299.145 37.8361L299.03 37.7871ZM296.645 38.6094L296.588 38.7209L296.588 38.7209L296.645 38.6094ZM294.528 37.7715L294.563 37.6515L294.563 37.6513L294.528 37.7715ZM291.167 37.2705L291.167 37.1455L291.167 37.1455L291.167 37.2705ZM286.492 38.4365L286.417 38.337L286.302 38.4236L286.404 38.5249L286.492 38.4365ZM286.493 38.4375L286.57 38.5364L286.682 38.4496L286.582 38.3491L286.493 38.4375ZM285.042 41.3125L284.917 41.3125L284.917 41.3125L285.042 41.3125ZM285.792 43.377L285.703 43.4645L285.703 43.465L285.792 43.377ZM287.893 44.6523L287.852 44.7704L287.872 44.7773H287.893V44.6523ZM287.894 44.6523L287.935 44.5343L287.915 44.5273H287.894V44.6523ZM291.555 45.7012L291.524 45.8224L291.525 45.8226L291.555 45.7012ZM295.629 46.8857L295.673 46.7688L295.672 46.7683L295.629 46.8857ZM296.079 47.0557L296.125 46.9394L296.123 46.9387L296.079 47.0557ZM299.148 49.2139V49.3389H299.422L299.243 49.132L299.148 49.2139ZM299.147 49.2139V49.0889H298.87L299.054 49.2968L299.147 49.2139ZM300.458 53.167L300.583 53.167V53.167H300.458ZM299.356 56.8975L299.251 56.8289L299.245 56.8416L299.356 56.8975ZM299.355 56.8994L299.46 56.9679L299.464 56.9618L299.467 56.9553L299.355 56.8994ZM296.012 59.5625L295.962 59.4479L295.952 59.4523L295.942 59.4585L296.012 59.5625ZM296.009 59.5645L296.058 59.6795L296.068 59.6749L296.078 59.6685L296.009 59.5645ZM290.625 60.5L290.625 60.625L290.625 60.625L290.625 60.5ZM285.105 59.5762H284.98V59.6648L285.064 59.6941L285.105 59.5762ZM285.105 59.5752H285.23V59.4863L285.147 59.4571L285.105 59.5752ZM281.559 57.6641L281.478 57.7598L281.478 57.7598L281.559 57.6641ZM281.221 55.8301L281.109 55.7732L281.109 55.7733L281.221 55.8301ZM283.802 55.2598L283.872 55.1567L283.872 55.1567L283.802 55.2598ZM286.131 56.4473L286.087 56.5642L286.088 56.5645L286.131 56.4473ZM290.625 57.25L290.625 57.375L290.625 57.375L290.625 57.25ZM295.371 56.1172L295.445 56.2181L295.446 56.2176L295.371 56.1172ZM296.854 53.3125L296.979 53.3125V53.3125H296.854ZM296.09 51.2764L296.178 51.1873L296.174 51.1841L296.09 51.2764ZM295.874 51.0791L295.958 50.9868L295.956 50.9845L295.874 51.0791ZM294.017 50.0117L293.967 50.1268L293.974 50.1291L294.017 50.0117ZM294.01 50.0088L294.059 49.8938L294.054 49.892L294.01 50.0088ZM290.404 48.9658L290.374 49.0871L290.375 49.0874L290.404 48.9658ZM290.396 48.9639L290.365 49.085L290.366 49.0851L290.396 48.9639ZM285.82 47.5713L285.751 47.6753L285.763 47.683L285.775 47.688L285.82 47.5713ZM285.817 47.5693L285.887 47.4653L285.876 47.4579L285.863 47.453L285.817 47.5693ZM282.729 45.415L282.632 45.4932L282.636 45.4979L282.729 45.415ZM282.726 45.4102L282.823 45.332L282.82 45.3285L282.726 45.4102ZM281.417 41.375L281.292 41.375V41.375L281.417 41.375ZM282.495 37.668L282.6 37.7358L282.6 37.7354L282.495 37.668ZM285.794 34.9814L285.845 35.0955L285.845 35.0954L285.794 34.9814ZM220.229 34L220.23 33.875H220.229V34ZM221.875 35.6455L222 35.6455L222 35.6455L221.875 35.6455ZM220.229 37.292V37.417L220.23 37.417L220.229 37.292ZM208.833 37.292L208.833 37.167L208.833 37.167L208.833 37.292ZM207.333 38.792L207.208 38.792V38.792H207.333ZM208.833 45.208L208.833 45.333H208.833V45.208ZM218.667 45.208L218.667 45.083H218.667V45.208ZM220.292 46.833H220.417L220.417 46.833L220.292 46.833ZM218.667 48.458V48.583L218.667 48.583L218.667 48.458ZM208.833 48.458L208.833 48.333L208.833 48.333L208.833 48.458ZM207.333 49.958L207.208 49.958V49.958H207.333ZM208.833 56.7705L208.833 56.8955H208.833V56.7705ZM222.417 58.417L222.542 58.417L222.542 58.417L222.417 58.417ZM206.188 60.0625L206.187 60.1875H206.188V60.0625ZM203.688 36.5L203.562 36.5V36.5H203.688ZM206.188 34L206.187 33.875L206.187 33.875L206.188 34ZM248.57 34L248.57 33.875L248.57 33.875L248.57 34ZM249.961 36.4785L250.068 36.5437L250.068 36.5437L249.961 36.4785ZM241.283 50.6768L241.177 50.6116L241.177 50.6116L241.283 50.6768ZM241.062 51.459L240.938 51.459V51.459H241.062ZM241.062 58.25L241.188 58.25V58.25H241.062ZM239.25 60.0625L239.25 60.1875L239.25 60.1875L239.25 60.0625ZM237.438 58.25L237.312 58.25L237.438 58.25ZM237.438 51.459L237.563 51.459L237.562 51.459L237.438 51.459ZM237.218 50.6768L237.324 50.6116L237.324 50.6116L237.218 50.6768ZM228.614 36.5996L228.508 36.6648L228.508 36.6648L228.614 36.5996ZM230.072 34L230.072 33.875L230.072 33.875L230.072 34ZM231.53 34.8184L231.637 34.7532L231.637 34.7532L231.53 34.8184ZM238.908 46.9053L238.802 46.9704L238.802 46.9705L238.908 46.9053ZM239.761 46.9053L239.867 46.9705L239.867 46.9705L239.761 46.9053ZM247.181 34.7783L247.074 34.7131L247.074 34.7131L247.181 34.7783ZM272.625 34L272.625 33.875H272.625V34ZM274.271 35.6455L274.396 35.6455L274.396 35.6455L274.271 35.6455ZM272.625 37.292V37.417L272.625 37.417L272.625 37.292ZM261.229 37.292V37.167L261.228 37.167L261.229 37.292ZM259.729 38.792L259.604 38.792V38.792H259.729ZM261.229 45.208L261.228 45.333H261.229V45.208ZM271.062 45.208L271.063 45.083H271.062V45.208ZM272.688 46.833L272.813 46.833L272.812 46.833L272.688 46.833ZM271.062 48.458V48.583L271.063 48.583L271.062 48.458ZM261.229 48.458L261.229 48.333L261.228 48.333L261.229 48.458ZM259.729 49.958L259.604 49.958V49.958H259.729ZM261.229 56.7705L261.228 56.8955H261.229V56.7705ZM274.812 58.417L274.938 58.417L274.937 58.417L274.812 58.417ZM258.583 60.0625L258.583 60.1875H258.583V60.0625ZM256.083 36.5L255.958 36.5V36.5H256.083ZM258.583 34L258.583 33.875L258.583 33.875L258.583 34ZM291.167 34L291.167 34.125C292.63 34.125 294.062 34.333 295.46 34.744L295.495 34.624L295.53 34.5041C294.109 34.0865 292.654 33.875 291.167 33.875L291.167 34ZM295.495 34.624V34.499H295.494V34.624V34.749H295.495V34.624ZM295.494 34.624L295.46 34.7443C296.514 35.0438 297.468 35.4322 298.324 35.9099L298.385 35.8008L298.446 35.6916C297.572 35.2034 296.598 34.808 295.528 34.5038L295.494 34.624ZM298.385 35.8008L298.324 35.9099C298.984 36.2787 299.196 37.0798 298.915 37.7381L299.03 37.7871L299.145 37.8361C299.47 37.0743 299.23 36.13 298.446 35.6917L298.385 35.8008ZM299.03 37.7871L298.915 37.7381C298.544 38.6094 297.502 38.9033 296.701 38.4978L296.645 38.6094L296.588 38.7209C297.502 39.1832 298.711 38.857 299.145 37.8361L299.03 37.7871ZM296.645 38.6094L296.701 38.4978C296.015 38.1508 295.303 37.8679 294.563 37.6515L294.528 37.7715L294.493 37.8914C295.218 38.1035 295.916 38.3807 296.588 38.7209L296.645 38.6094ZM294.528 37.7715L294.563 37.6513C293.395 37.3162 292.263 37.1456 291.167 37.1455L291.167 37.2705L291.167 37.3955C292.237 37.3956 293.345 37.5621 294.494 37.8916L294.528 37.7715ZM291.167 37.2705L291.167 37.1455C288.999 37.1455 287.433 37.5655 286.417 38.337L286.492 38.4365L286.568 38.5361C287.522 37.8118 289.024 37.3955 291.167 37.3955L291.167 37.2705ZM286.492 38.4365L286.404 38.5249L286.405 38.5259L286.493 38.4375L286.582 38.3491L286.581 38.3481L286.492 38.4365ZM286.493 38.4375L286.417 38.3386C285.406 39.1198 284.917 40.1007 284.917 41.3125H285.042H285.167C285.167 40.1815 285.617 39.2724 286.57 38.5364L286.493 38.4375ZM285.042 41.3125L284.917 41.3125C284.917 42.2321 285.186 42.938 285.703 43.4645L285.792 43.377L285.881 43.2894C285.419 42.8181 285.167 42.1794 285.167 41.3125L285.042 41.3125ZM285.792 43.377L285.703 43.465C286.267 44.0334 286.982 44.4689 287.852 44.7704L287.893 44.6523L287.934 44.5342C287.095 44.2434 286.414 43.8267 285.881 43.2889L285.792 43.377ZM287.893 44.6523V44.7773H287.894V44.6523V44.5273H287.893V44.6523ZM287.894 44.6523L287.852 44.7704C288.763 45.0877 289.99 45.4387 291.524 45.8224L291.555 45.7012L291.585 45.5799C290.053 45.1969 288.835 44.848 287.935 44.5343L287.894 44.6523ZM291.555 45.7012L291.525 45.8226C293.145 46.2161 294.503 46.6087 295.586 47.0032L295.629 46.8857L295.672 46.7683C294.577 46.3695 293.209 45.9744 291.584 45.5797L291.555 45.7012ZM295.629 46.8857L295.585 47.0027L296.035 47.1726L296.079 47.0557L296.123 46.9387L295.673 46.7688L295.629 46.8857ZM296.079 47.0557L296.033 47.1719C297.223 47.6413 298.232 48.3478 299.054 49.2958L299.148 49.2139L299.243 49.132C298.394 48.1527 297.351 47.423 296.125 46.9394L296.079 47.0557ZM299.148 49.2139V49.0889H299.147V49.2139V49.3389H299.148V49.2139ZM299.147 49.2139L299.054 49.2968C299.92 50.2732 300.333 51.5777 300.333 53.167H300.458H300.583C300.583 51.5343 300.158 50.1647 299.241 49.1309L299.147 49.2139ZM300.458 53.167L300.333 53.167C300.333 54.5048 299.968 55.7268 299.252 56.8293L299.356 56.8975L299.461 56.9656C300.204 55.8224 300.583 54.5531 300.583 53.167L300.458 53.167ZM299.356 56.8975L299.245 56.8416L299.244 56.8435L299.355 56.8994L299.467 56.9553L299.468 56.9534L299.356 56.8975ZM299.355 56.8994L299.251 56.8309C298.521 57.9457 297.415 58.8159 295.962 59.4479L296.012 59.5625L296.062 59.6771C297.549 59.0301 298.698 58.1317 299.46 56.9679L299.355 56.8994ZM296.012 59.5625L295.942 59.4585L295.939 59.4604L296.009 59.5645L296.078 59.6685L296.081 59.6665L296.012 59.5625ZM296.009 59.5645L295.96 59.4494C294.494 60.0738 292.711 60.375 290.625 60.375L290.625 60.5L290.625 60.625C292.733 60.625 294.552 60.3208 296.058 59.6795L296.009 59.5645ZM290.625 60.5L290.625 60.375C288.72 60.375 286.896 60.0716 285.147 59.4582L285.105 59.5762L285.064 59.6941C286.841 60.3171 288.693 60.625 290.625 60.625L290.625 60.5ZM285.105 59.5762H285.23V59.5752H285.105H284.98V59.5762H285.105ZM285.105 59.5752L285.147 59.4571C283.73 58.9647 282.555 58.3369 281.639 57.5683L281.559 57.6641L281.478 57.7598C282.423 58.5527 283.627 59.1936 285.064 59.6933L285.105 59.5752ZM281.559 57.6641L281.639 57.5683C281.13 57.1413 281.052 56.4351 281.332 55.8869L281.221 55.8301L281.109 55.7733C280.785 56.4091 280.867 57.2469 281.478 57.7598L281.559 57.6641ZM281.221 55.8301L281.332 55.8869C281.794 54.9826 282.965 54.8383 283.731 55.3629L283.802 55.2598L283.872 55.1567C283.011 54.5661 281.654 54.7059 281.109 55.7732L281.221 55.8301ZM283.802 55.2598L283.731 55.3629C284.4 55.8216 285.185 56.2226 286.087 56.5642L286.131 56.4473L286.175 56.3304C285.289 55.9947 284.522 55.6024 283.872 55.1567L283.802 55.2598ZM286.131 56.4473L286.088 56.5645C287.556 57.1064 289.07 57.375 290.625 57.375L290.625 57.25L290.625 57.125C289.1 57.125 287.615 56.8616 286.174 56.33L286.131 56.4473ZM290.625 57.25L290.625 57.375C292.825 57.375 294.413 56.9727 295.445 56.2181L295.371 56.1172L295.297 56.0163C294.327 56.7255 292.802 57.125 290.625 57.125L290.625 57.25ZM295.371 56.1172L295.446 56.2176C296.482 55.4493 296.979 54.4903 296.979 53.3125L296.854 53.3125L296.729 53.3125C296.729 54.4047 296.274 55.2916 295.297 56.0168L295.371 56.1172ZM296.854 53.3125H296.979C296.979 52.3975 296.702 51.7041 296.178 51.1874L296.09 51.2764L296.002 51.3654C296.471 51.8277 296.729 52.453 296.729 53.3125H296.854ZM296.09 51.2764L296.174 51.1841L295.958 50.9868L295.874 51.0791L295.79 51.1714L296.006 51.3686L296.09 51.2764ZM295.874 51.0791L295.956 50.9845C295.426 50.5268 294.795 50.1626 294.059 49.8943L294.017 50.0117L293.974 50.1291C294.684 50.3882 295.287 50.7377 295.792 51.1737L295.874 51.0791ZM294.017 50.0117L294.066 49.8968L294.059 49.8939L294.01 50.0088L293.961 50.1237L293.967 50.1266L294.017 50.0117ZM294.01 50.0088L294.054 49.892C293.201 49.5671 291.995 49.2178 290.433 48.8443L290.404 48.9658L290.375 49.0874C291.933 49.4599 293.127 49.8064 293.965 50.1256L294.01 50.0088ZM290.404 48.9658L290.435 48.8446L290.427 48.8426L290.396 48.9639L290.366 49.0851L290.374 49.0871L290.404 48.9658ZM290.396 48.9639L290.428 48.8428C288.53 48.3567 287.009 47.8942 285.865 47.4546L285.82 47.5713L285.775 47.688C286.932 48.1325 288.464 48.5977 290.365 49.085L290.396 48.9639ZM285.82 47.5713L285.89 47.4673L285.887 47.4653L285.817 47.5693L285.748 47.6733L285.751 47.6753L285.82 47.5713ZM285.817 47.5693L285.863 47.453C284.684 46.989 283.665 46.2834 282.823 45.3322L282.729 45.415L282.636 45.4979C283.505 46.4793 284.557 47.2075 285.772 47.6857L285.817 47.5693ZM282.729 45.415L282.827 45.337L282.823 45.3321L282.726 45.4102L282.628 45.4882L282.632 45.4931L282.729 45.415ZM282.726 45.4102L282.82 45.3285C281.955 44.3263 281.542 42.9961 281.542 41.375L281.417 41.375L281.292 41.375C281.292 43.0386 281.716 44.4325 282.631 45.4919L282.726 45.4102ZM281.417 41.375H281.542C281.542 40.0452 281.894 38.8288 282.6 37.7358L282.495 37.668L282.39 37.6001C281.657 38.7347 281.292 39.9985 281.292 41.375H281.417ZM282.495 37.668L282.6 37.7354C283.314 36.6199 284.404 35.7434 285.845 35.0955L285.794 34.9814L285.743 34.8674C284.267 35.5308 283.135 36.4358 282.39 37.6006L282.495 37.668ZM285.794 34.9814L285.845 35.0954C287.293 34.4423 289.074 34.125 291.167 34.125L291.167 34L291.167 33.875C289.051 33.875 287.232 34.1956 285.743 34.8675L285.794 34.9814ZM220.229 34L220.229 34.125C221.069 34.1252 221.75 34.8058 221.75 35.6455L221.875 35.6455L222 35.6455C222 34.6678 221.207 33.8752 220.23 33.875L220.229 34ZM221.875 35.6455H221.75C221.75 36.4854 221.069 37.1668 220.229 37.167L220.229 37.292L220.23 37.417C221.207 37.4168 222 36.6233 222 35.6455H221.875ZM220.229 37.292V37.167H208.833V37.292V37.417H220.229V37.292ZM208.833 37.292L208.833 37.167C207.936 37.1672 207.208 37.8946 207.208 38.792L207.333 38.792L207.458 38.792C207.458 38.0327 208.074 37.4172 208.833 37.417L208.833 37.292ZM207.333 38.792H207.208V43.708H207.333H207.458V38.792H207.333ZM207.333 43.708H207.208C207.208 44.6054 207.936 45.3328 208.833 45.333L208.833 45.208L208.833 45.083C208.074 45.0828 207.458 44.4673 207.458 43.708H207.333ZM208.833 45.208V45.333H218.667V45.208V45.083H208.833V45.208ZM218.667 45.208L218.667 45.333C219.495 45.3332 220.167 46.0048 220.167 46.833L220.292 46.833L220.417 46.833C220.417 45.8668 219.633 45.0832 218.667 45.083L218.667 45.208ZM220.292 46.833H220.167C220.167 47.6613 219.495 48.3328 218.667 48.333L218.667 48.458L218.667 48.583C219.633 48.5828 220.417 47.7994 220.417 46.833H220.292ZM218.667 48.458V48.333H208.833V48.458V48.583H218.667V48.458ZM208.833 48.458L208.833 48.333C207.936 48.3332 207.208 49.0608 207.208 49.958L207.333 49.958L207.458 49.958C207.458 49.1989 208.074 48.5832 208.833 48.583L208.833 48.458ZM207.333 49.958H207.208V55.2705H207.333H207.458V49.958H207.333ZM207.333 55.2705H207.208C207.208 56.1679 207.936 56.8953 208.833 56.8955L208.833 56.7705L208.833 56.6455C208.074 56.6453 207.458 56.0298 207.458 55.2705H207.333ZM208.833 56.7705V56.8955H220.771V56.7705V56.6455H208.833V56.7705ZM220.771 56.7705V56.8955C221.61 56.8955 222.292 57.5771 222.292 58.417L222.417 58.417L222.542 58.417C222.542 57.439 221.749 56.6455 220.771 56.6455V56.7705ZM222.417 58.417L222.292 58.417C222.292 59.2567 221.61 59.9375 220.771 59.9375V60.0625V60.1875C221.748 60.1875 222.542 59.3949 222.542 58.417L222.417 58.417ZM220.771 60.0625V59.9375H206.188V60.0625V60.1875H220.771V60.0625ZM206.188 60.0625L206.188 59.9375C204.876 59.9375 203.812 58.8742 203.812 57.5625H203.688H203.562C203.562 59.0122 204.738 60.1875 206.187 60.1875L206.188 60.0625ZM203.688 57.5625H203.812V36.5H203.688H203.562V57.5625H203.688ZM203.688 36.5L203.812 36.5C203.813 35.1883 204.876 34.125 206.188 34.125L206.188 34L206.187 33.875C204.738 33.875 203.563 35.0503 203.563 36.5L203.688 36.5ZM206.188 34V34.125H220.229V34V33.875H206.188V34ZM248.57 34L248.57 34.125C249.745 34.1253 250.466 35.4114 249.854 36.4134L249.961 36.4785L250.068 36.5437C250.782 35.375 249.94 33.8753 248.57 33.875L248.57 34ZM249.961 36.4785L249.854 36.4133L241.177 50.6116L241.283 50.6768L241.39 50.7419L250.068 36.5437L249.961 36.4785ZM241.283 50.6768L241.177 50.6116C241.021 50.8665 240.938 51.1598 240.938 51.459L241.062 51.459L241.187 51.459C241.188 51.2062 241.258 50.958 241.39 50.7419L241.283 50.6768ZM241.062 51.459H240.938V58.25H241.062H241.188V51.459H241.062ZM241.062 58.25L240.938 58.25C240.937 59.1818 240.182 59.9373 239.25 59.9375L239.25 60.0625L239.25 60.1875C240.32 60.1873 241.187 59.3199 241.188 58.25L241.062 58.25ZM239.25 60.0625L239.25 59.9375C238.318 59.9373 237.563 59.1818 237.562 58.25L237.438 58.25L237.312 58.25C237.313 59.32 238.18 60.1873 239.25 60.1875L239.25 60.0625ZM237.438 58.25H237.562V51.459H237.438H237.312V58.25H237.438ZM237.438 51.459L237.562 51.459C237.562 51.1602 237.48 50.8667 237.324 50.6116L237.218 50.6768L237.111 50.7419C237.243 50.9576 237.312 51.2061 237.313 51.459L237.438 51.459ZM237.218 50.6768L237.324 50.6116L228.721 36.5344L228.614 36.5996L228.508 36.6648L237.111 50.7419L237.218 50.6768ZM228.614 36.5996L228.721 36.5344C228.076 35.4792 228.836 34.125 230.072 34.125L230.072 34L230.072 33.875C228.64 33.875 227.761 35.443 228.508 36.6648L228.614 36.5996ZM230.072 34L230.072 34.125C230.624 34.1252 231.136 34.4126 231.424 34.8835L231.53 34.8184L231.637 34.7532C231.304 34.208 230.711 33.8752 230.072 33.875L230.072 34ZM231.53 34.8184L231.424 34.8835L238.802 46.9704L238.908 46.9053L239.015 46.8401L231.637 34.7532L231.53 34.8184ZM238.908 46.9053L238.802 46.9705C239.045 47.3691 239.624 47.369 239.867 46.9705L239.761 46.9053L239.654 46.84C239.508 47.0792 239.161 47.0791 239.015 46.8401L238.908 46.9053ZM239.761 46.9053L239.867 46.9705L247.287 34.8436L247.181 34.7783L247.074 34.7131L239.654 46.84L239.761 46.9053ZM247.181 34.7783L247.287 34.8436C247.561 34.3972 248.047 34.1251 248.57 34.125L248.57 34L248.57 33.875C247.96 33.8751 247.393 34.1924 247.074 34.7131L247.181 34.7783ZM272.625 34L272.625 34.125C273.465 34.1252 274.145 34.8058 274.146 35.6455L274.271 35.6455L274.396 35.6455C274.395 34.6678 273.603 33.8752 272.625 33.875L272.625 34ZM274.271 35.6455H274.146C274.146 36.4854 273.465 37.1668 272.625 37.167L272.625 37.292L272.625 37.417C273.603 37.4168 274.396 36.6233 274.396 35.6455H274.271ZM272.625 37.292V37.167H261.229V37.292V37.417H272.625V37.292ZM261.229 37.292L261.228 37.167C260.331 37.1673 259.604 37.8947 259.604 38.792L259.729 38.792L259.854 38.792C259.854 38.0328 260.469 37.4173 261.229 37.417L261.229 37.292ZM259.729 38.792H259.604V43.708H259.729H259.854V38.792H259.729ZM259.729 43.708H259.604C259.604 44.6053 260.331 45.3327 261.228 45.333L261.229 45.208L261.229 45.083C260.469 45.0827 259.854 44.4672 259.854 43.708H259.729ZM261.229 45.208V45.333H271.062V45.208V45.083H261.229V45.208ZM271.062 45.208L271.062 45.333C271.891 45.3332 272.562 46.0048 272.563 46.833L272.688 46.833L272.812 46.833C272.812 45.8668 272.029 45.0832 271.063 45.083L271.062 45.208ZM272.688 46.833H272.562C272.562 47.6613 271.891 48.3328 271.062 48.333L271.062 48.458L271.063 48.583C272.029 48.5828 272.812 47.7994 272.812 46.833H272.688ZM271.062 48.458V48.333H261.229V48.458V48.583H271.062V48.458ZM261.229 48.458L261.228 48.333C260.331 48.3333 259.604 49.0609 259.604 49.958L259.729 49.958L259.854 49.958C259.854 49.199 260.469 48.5833 261.229 48.583L261.229 48.458ZM259.729 49.958H259.604V55.2705H259.729H259.854V49.958H259.729ZM259.729 55.2705H259.604C259.604 56.1678 260.331 56.8952 261.228 56.8955L261.229 56.7705L261.229 56.6455C260.469 56.6452 259.854 56.0297 259.854 55.2705H259.729ZM261.229 56.7705V56.8955H273.166V56.7705V56.6455H261.229V56.7705ZM273.166 56.7705V56.8955C274.006 56.8955 274.687 57.5771 274.688 58.417L274.812 58.417L274.937 58.417C274.937 57.439 274.144 56.6455 273.166 56.6455V56.7705ZM274.812 58.417L274.688 58.417C274.687 59.2567 274.006 59.9375 273.166 59.9375V60.0625V60.1875C274.144 60.1875 274.937 59.3949 274.937 58.417L274.812 58.417ZM273.166 60.0625V59.9375H258.583V60.0625V60.1875H273.166V60.0625ZM258.583 60.0625L258.583 59.9375C257.271 59.9374 256.208 58.8741 256.208 57.5625H256.083H255.958C255.958 59.0122 257.133 60.1874 258.583 60.1875L258.583 60.0625ZM256.083 57.5625H256.208V36.5H256.083H255.958V57.5625H256.083ZM256.083 36.5L256.208 36.5C256.208 35.1884 257.271 34.1251 258.583 34.125L258.583 34L258.583 33.875C257.133 33.8751 255.958 35.0503 255.958 36.5L256.083 36.5ZM258.583 34V34.125H272.625V34V33.875H258.583V34Z" fill="#0085D3"/>
<path d="M134.146 34.5C136.062 34.5 137.839 34.8221 139.477 35.4727H139.476C140.733 35.969 141.848 36.6409 142.817 37.4873C143.547 38.124 143.489 39.2003 142.86 39.8369C142.183 40.5228 141.122 40.4823 140.427 39.9258C138.727 38.5649 136.669 37.8751 134.229 37.875C132.319 37.875 130.601 38.3079 129.055 39.165L129.056 39.166C127.507 40.0295 126.303 41.2057 125.433 42.709L125.432 42.71C124.563 44.2009 124.125 45.8735 124.125 47.75C124.125 49.6261 124.563 51.3091 125.432 52.8105C126.302 54.3042 127.508 55.4819 129.059 56.3564H129.058C130.602 57.2173 132.319 57.6455 134.229 57.6455C136.681 57.6454 138.735 56.9489 140.427 55.5693C141.119 55.005 142.185 54.9596 142.865 55.6484C143.491 56.2822 143.55 57.3514 142.826 57.9873C141.855 58.8413 140.738 59.5206 139.478 60.0264L139.476 60.0273C137.829 60.6775 136.041 61 134.125 61C131.559 61 129.236 60.4352 127.155 59.292C125.087 58.155 123.458 56.5706 122.276 54.5439V54.543C121.088 52.518 120.5 50.2478 120.5 47.75C120.5 45.2664 121.088 43.0062 122.276 40.9766C123.458 38.9542 125.098 37.3701 127.176 36.2285C129.255 35.0753 131.579 34.5 134.146 34.5ZM101.688 34C104.25 34 106.569 34.5751 108.64 35.7295H108.639C110.715 36.871 112.348 38.4548 113.534 40.4746C114.733 42.5039 115.333 44.7647 115.333 47.25C115.333 49.7501 114.734 52.0218 113.534 54.0469L113.533 54.0459C112.347 56.071 110.714 57.6546 108.637 58.791C106.566 59.9346 104.248 60.5 101.688 60.5C99.1215 60.5 96.7874 59.9296 94.6963 58.7705C92.6046 57.6192 90.9596 56.0364 89.7773 54.0244V54.0234C88.5879 52.0131 88 49.7475 88 47.25C88 44.7666 88.588 42.511 89.7773 40.4961C90.9595 38.474 92.6049 36.885 94.6963 35.7285C96.7864 34.5753 99.1205 34 101.688 34ZM68.8232 34C69.8299 34.0002 70.6455 34.8166 70.6455 35.8232V55.2705C70.6457 56.0987 71.3173 56.7703 72.1455 56.7705H83.042C83.9508 56.7707 84.6875 57.5081 84.6875 58.417C84.6871 59.3256 83.9506 60.0623 83.042 60.0625H69.5C68.1194 60.0625 67.0002 58.9431 67 57.5625V35.8232C67 34.8165 67.8165 34 68.8232 34ZM161.6 34C162.578 34.0001 163.466 34.5712 163.873 35.4609L173.978 57.5615C174.512 58.7313 173.657 60.0622 172.371 60.0625C171.675 60.0625 171.044 59.6533 170.759 59.0186L168.625 54.2607C168.383 53.7217 167.847 53.375 167.256 53.375H155.866C155.276 53.3751 154.74 53.7219 154.498 54.2607L152.36 59.0254C152.077 59.6562 151.449 60.0625 150.758 60.0625C149.478 60.0622 148.629 58.7374 149.161 57.5742L159.291 35.459C159.698 34.5701 160.586 34.0001 161.563 34H161.6ZM181.823 34C182.83 34.0002 183.646 34.8166 183.646 35.8232V55.2705C183.646 56.0987 184.317 56.7703 185.146 56.7705H196.042C196.951 56.7707 197.688 57.5081 197.688 58.417C197.687 59.3256 196.951 60.0623 196.042 60.0625H182.5C181.119 60.0625 180 58.9431 180 57.5625V35.8232C180 34.8165 180.816 34 181.823 34ZM101.688 37.375C99.7773 37.375 98.0655 37.8089 96.5361 38.665L96.5332 38.667C94.9978 39.5139 93.8035 40.6841 92.9326 42.1885C92.0633 43.6902 91.625 45.3734 91.625 47.25C91.625 49.1265 92.063 50.8205 92.9326 52.333L93.0996 52.6113C93.9543 53.984 95.0942 55.0715 96.5332 55.875C98.0622 56.7211 99.7751 57.1455 101.688 57.1455C103.593 57.1455 105.299 56.7215 106.816 55.877C108.332 55.0202 109.517 53.8402 110.379 52.335V52.334C111.249 50.8212 111.687 49.127 111.688 47.25C111.687 45.3734 111.249 43.6902 110.38 42.1885L110.379 42.1855C109.518 40.6814 108.333 39.5126 106.818 38.666L106.817 38.665C105.299 37.8094 103.593 37.375 101.688 37.375ZM162.009 39.498C161.832 39.1034 161.272 39.1041 161.096 39.499L156.635 49.5049C156.488 49.8355 156.73 50.208 157.092 50.208H166.028C166.391 50.208 166.633 49.8346 166.485 49.5039L162.009 39.498Z" fill="#3D3B3A"/>
<path d="M134.146 34.5L134.146 34.375L134.146 34.375L134.146 34.5ZM139.477 35.4727V35.5977L139.523 35.3565L139.477 35.4727ZM139.476 35.4727V35.3477L139.43 35.5889L139.476 35.4727ZM142.817 37.4873L142.9 37.3931L142.9 37.3931L142.817 37.4873ZM142.86 39.8369L142.949 39.9248L142.949 39.9247L142.86 39.8369ZM140.427 39.9258L140.505 39.8282L140.505 39.8282L140.427 39.9258ZM134.229 37.875L134.229 37.75H134.229V37.875ZM129.055 39.165L128.994 39.0557L128.849 39.1361L128.966 39.2534L129.055 39.165ZM129.056 39.166L129.117 39.2752L129.261 39.1946L129.144 39.0776L129.056 39.166ZM125.433 42.709L125.521 42.7974L125.533 42.7858L125.541 42.7716L125.433 42.709ZM125.432 42.71L125.343 42.6216L125.332 42.633L125.324 42.647L125.432 42.71ZM124.125 47.75L124 47.75V47.75L124.125 47.75ZM125.432 52.8105L125.323 52.8732L125.324 52.8735L125.432 52.8105ZM129.059 56.3564V56.4814H129.535L129.12 56.2476L129.059 56.3564ZM129.058 56.3564V56.2314H128.577L128.997 56.4656L129.058 56.3564ZM134.229 57.6455L134.229 57.7705L134.229 57.7705L134.229 57.6455ZM140.427 55.5693L140.348 55.4724L140.348 55.4725L140.427 55.5693ZM142.865 55.6484L142.954 55.5606L142.954 55.5606L142.865 55.6484ZM142.826 57.9873L142.909 58.0812L142.909 58.0812L142.826 57.9873ZM139.478 60.0264L139.431 59.91L139.422 59.9146L139.478 60.0264ZM139.476 60.0273L139.522 60.1441L139.531 60.1391L139.476 60.0273ZM134.125 61L134.125 61.125L134.125 61.125L134.125 61ZM127.155 59.292L127.095 59.4015L127.095 59.4015L127.155 59.292ZM122.276 54.5439H122.151V54.5777L122.168 54.6069L122.276 54.5439ZM122.276 54.543H122.401V54.509L122.384 54.4797L122.276 54.543ZM120.5 47.75L120.375 47.75V47.75L120.5 47.75ZM122.276 40.9766L122.384 41.0397L122.384 41.0396L122.276 40.9766ZM127.176 36.2285L127.236 36.3381L127.236 36.3378L127.176 36.2285ZM101.688 34L101.687 33.875L101.687 33.875L101.688 34ZM108.64 35.7295V35.8545H109.121L108.701 35.6203L108.64 35.7295ZM108.639 35.7295V35.6045L108.578 35.839L108.639 35.7295ZM113.534 40.4746L113.426 40.5379L113.427 40.5382L113.534 40.4746ZM115.333 47.25L115.458 47.25V47.25L115.333 47.25ZM113.534 54.0469L113.446 54.1353L113.56 54.2491L113.642 54.1106L113.534 54.0469ZM113.533 54.0459L113.622 53.9575L113.507 53.8431L113.425 53.9827L113.533 54.0459ZM108.637 58.791L108.577 58.6814L108.576 58.6816L108.637 58.791ZM101.688 60.5L101.687 60.625H101.688V60.5ZM94.6963 58.7705L94.7569 58.6612L94.7566 58.661L94.6963 58.7705ZM89.7773 54.0244H89.6523V54.0584L89.6696 54.0877L89.7773 54.0244ZM89.7773 54.0234H89.9023V53.9892L89.8849 53.9598L89.7773 54.0234ZM88 47.25L87.875 47.25V47.25L88 47.25ZM89.7773 40.4961L89.885 40.5596L89.8853 40.5592L89.7773 40.4961ZM94.6963 35.7285L94.6359 35.6191L94.6358 35.6191L94.6963 35.7285ZM68.8232 34L68.8233 33.875L68.8232 33.875L68.8232 34ZM70.6455 55.2705L70.5205 55.2705L70.5205 55.2705L70.6455 55.2705ZM72.1455 56.7705L72.1455 56.8955H72.1455V56.7705ZM83.042 56.7705L83.042 56.6455H83.042V56.7705ZM84.6875 58.417L84.8125 58.417V58.417H84.6875ZM83.042 60.0625L83.042 60.1875L83.042 60.1875L83.042 60.0625ZM69.5 60.0625L69.5 60.1875H69.5V60.0625ZM67 57.5625L66.875 57.5625L66.875 57.5625L67 57.5625ZM161.6 34L161.6 33.875H161.6V34ZM163.873 35.4609L163.759 35.5129L163.759 35.5129L163.873 35.4609ZM173.978 57.5615L174.091 57.5096L174.091 57.5095L173.978 57.5615ZM172.371 60.0625L172.371 60.1875L172.371 60.1875L172.371 60.0625ZM170.759 59.0186L170.645 59.0697L170.645 59.0697L170.759 59.0186ZM168.625 54.2607L168.739 54.2096L168.739 54.2096L168.625 54.2607ZM167.256 53.375L167.256 53.25H167.256V53.375ZM155.866 53.375L155.866 53.25L155.866 53.25L155.866 53.375ZM154.498 54.2607L154.384 54.2096L154.384 54.2096L154.498 54.2607ZM152.36 59.0254L152.474 59.0766L152.474 59.0766L152.36 59.0254ZM150.758 60.0625L150.758 60.1875L150.758 60.1875L150.758 60.0625ZM149.161 57.5742L149.047 57.5222L149.047 57.5222L149.161 57.5742ZM159.291 35.459L159.177 35.4069L159.177 35.4069L159.291 35.459ZM161.563 34L161.563 33.875L161.563 33.875L161.563 34ZM181.823 34L181.823 33.875L181.823 33.875L181.823 34ZM183.646 55.2705L183.521 55.2705L183.521 55.2705L183.646 55.2705ZM185.146 56.7705L185.145 56.8955H185.146V56.7705ZM196.042 56.7705L196.042 56.6455H196.042V56.7705ZM197.688 58.417L197.812 58.417V58.417H197.688ZM196.042 60.0625L196.042 60.1875L196.042 60.1875L196.042 60.0625ZM182.5 60.0625L182.5 60.1875H182.5V60.0625ZM180 57.5625L179.875 57.5625L179.875 57.5625L180 57.5625ZM101.688 37.375L101.687 37.25L101.687 37.25L101.688 37.375ZM96.5361 38.665L96.4749 38.5556L96.4668 38.561L96.5361 38.665ZM96.5332 38.667L96.5938 38.7768L96.6025 38.771L96.5332 38.667ZM92.9326 42.1885L92.8244 42.1258L92.8244 42.1259L92.9326 42.1885ZM91.625 47.25L91.5 47.25V47.25L91.625 47.25ZM92.9326 52.333L92.8242 52.3953L92.8254 52.3973L92.9326 52.333ZM93.0996 52.6113L92.9924 52.6756L92.9935 52.6774L93.0996 52.6113ZM96.5332 55.875L96.4723 55.9841L96.4727 55.9844L96.5332 55.875ZM101.688 57.1455L101.687 57.2705H101.688V57.1455ZM106.816 55.877L106.877 55.9862L106.878 55.9858L106.816 55.877ZM110.379 52.335L110.487 52.3971L110.504 52.3682V52.335H110.379ZM110.379 52.334L110.271 52.2717L110.254 52.3006V52.334H110.379ZM111.688 47.25L111.812 47.25V47.25L111.688 47.25ZM110.38 42.1885L110.261 42.228L110.265 42.2401L110.272 42.2511L110.38 42.1885ZM110.379 42.1855L110.497 42.146L110.494 42.1342L110.487 42.1235L110.379 42.1855ZM106.818 38.666L106.73 38.7544L106.742 38.7667L106.757 38.7751L106.818 38.666ZM106.817 38.665L106.906 38.5767L106.894 38.5645L106.879 38.5561L106.817 38.665ZM162.009 39.498L162.123 39.447L162.123 39.447L162.009 39.498ZM161.096 39.499L161.21 39.5499L161.21 39.5499L161.096 39.499ZM156.635 49.5049L156.521 49.454L156.521 49.4541L156.635 49.5049ZM166.028 50.208L166.028 50.333L166.028 50.333L166.028 50.208ZM166.485 49.5039L166.599 49.4529L166.599 49.4529L166.485 49.5039ZM134.146 34.5L134.146 34.625C136.048 34.625 137.809 34.9447 139.43 35.5888L139.477 35.4727L139.523 35.3565C137.87 34.6996 136.076 34.375 134.146 34.375L134.146 34.5ZM139.477 35.4727V35.3477H139.476V35.4727V35.5977H139.477V35.4727ZM139.476 35.4727L139.43 35.5889C140.674 36.0803 141.777 36.7449 142.735 37.5815L142.817 37.4873L142.9 37.3931C141.918 36.5368 140.791 35.8577 139.521 35.3564L139.476 35.4727ZM142.817 37.4873L142.735 37.5815C143.403 38.1643 143.357 39.1565 142.771 39.7491L142.86 39.8369L142.949 39.9247C143.621 39.2442 143.691 38.0837 142.9 37.3931L142.817 37.4873ZM142.86 39.8369L142.771 39.7491C142.146 40.3825 141.158 40.3511 140.505 39.8282L140.427 39.9258L140.349 40.0234C141.086 40.6135 142.22 40.6631 142.949 39.9248L142.86 39.8369ZM140.427 39.9258L140.505 39.8282C138.781 38.4477 136.695 37.7501 134.229 37.75L134.229 37.875L134.229 38C136.644 38.0001 138.673 38.6821 140.349 40.0234L140.427 39.9258ZM134.229 37.875V37.75C132.3 37.75 130.56 38.1876 128.994 39.0557L129.055 39.165L129.115 39.2744C130.642 38.4281 132.339 38 134.229 38V37.875ZM129.055 39.165L128.966 39.2534L128.967 39.2544L129.056 39.166L129.144 39.0776L129.143 39.0767L129.055 39.165ZM129.056 39.166L128.995 39.0568C127.427 39.931 126.206 41.1231 125.324 42.6464L125.433 42.709L125.541 42.7716C126.4 41.2883 127.588 40.128 129.117 39.2752L129.056 39.166ZM125.433 42.709L125.344 42.6206L125.343 42.6216L125.432 42.71L125.52 42.7983L125.521 42.7974L125.433 42.709ZM125.432 42.71L125.324 42.647C124.443 44.1584 124 45.853 124 47.75L124.125 47.75L124.25 47.75C124.25 45.8939 124.683 44.2433 125.54 42.7729L125.432 42.71ZM124.125 47.75L124 47.75C124 49.6465 124.443 51.3513 125.323 52.8732L125.432 52.8105L125.54 52.7479C124.683 51.2669 124.25 49.6058 124.25 47.75L124.125 47.75ZM125.432 52.8105L125.324 52.8735C126.206 54.3869 127.428 55.5802 128.997 56.4653L129.059 56.3564L129.12 56.2476C127.588 55.3836 126.399 54.2214 125.54 52.7476L125.432 52.8105ZM129.059 56.3564V56.2314H129.058V56.3564V56.4814H129.059V56.3564ZM129.058 56.3564L128.997 56.4656C130.561 57.3377 132.3 57.7705 134.229 57.7705V57.6455V57.5205C132.339 57.5205 130.643 57.0969 129.118 56.2473L129.058 56.3564ZM134.229 57.6455L134.229 57.7705C136.707 57.7704 138.79 57.0659 140.506 55.6662L140.427 55.5693L140.348 55.4725C138.681 56.8318 136.656 57.5204 134.229 57.5205L134.229 57.6455ZM140.427 55.5693L140.506 55.6662C141.156 55.1361 142.148 55.1002 142.776 55.7363L142.865 55.6484L142.954 55.5606C142.222 54.819 141.082 54.8738 140.348 55.4724L140.427 55.5693ZM142.865 55.6484L142.776 55.7363C143.359 56.3261 143.406 57.3114 142.744 57.8934L142.826 57.9873L142.909 58.0812C143.693 57.3914 143.623 56.2383 142.954 55.5606L142.865 55.6484ZM142.826 57.9873L142.744 57.8934C141.783 58.7376 140.679 59.4096 139.431 59.9104L139.478 60.0264L139.524 60.1424C140.797 59.6316 141.926 58.9451 142.909 58.0812L142.826 57.9873ZM139.478 60.0264L139.422 59.9146L139.42 59.9155L139.476 60.0273L139.531 60.1391L139.533 60.1382L139.478 60.0264ZM139.476 60.0273L139.43 59.9111C137.799 60.5549 136.027 60.875 134.125 60.875L134.125 61L134.125 61.125C136.056 61.125 137.859 60.8 139.521 60.1436L139.476 60.0273ZM134.125 61L134.125 60.875C131.578 60.875 129.276 60.3146 127.215 59.1824L127.155 59.292L127.095 59.4015C129.196 60.5558 131.54 61.125 134.125 61.125L134.125 61ZM127.155 59.292L127.215 59.1825C125.167 58.0563 123.554 56.4879 122.384 54.481L122.276 54.5439L122.168 54.6069C123.361 56.6532 125.007 58.2537 127.095 59.4015L127.155 59.292ZM122.276 54.5439H122.401V54.543H122.276H122.151V54.5439H122.276ZM122.276 54.543L122.384 54.4797C121.208 52.4754 120.625 50.2273 120.625 47.75L120.5 47.75L120.375 47.75C120.375 50.2682 120.968 52.5605 122.169 54.6062L122.276 54.543ZM120.5 47.75L120.625 47.75C120.625 45.2871 121.208 43.0489 122.384 41.0397L122.276 40.9766L122.168 40.9134C120.968 42.9635 120.375 45.2458 120.375 47.75L120.5 47.75ZM122.276 40.9766L122.384 41.0396C123.555 39.0372 125.178 37.469 127.236 36.3381L127.176 36.2285L127.116 36.119C125.019 37.2712 123.362 38.8712 122.168 40.9135L122.276 40.9766ZM127.176 36.2285L127.236 36.3378C129.296 35.1957 131.598 34.625 134.146 34.625L134.146 34.5L134.146 34.375C131.56 34.375 129.215 34.9549 127.115 36.1192L127.176 36.2285ZM101.688 34V34.125C104.23 34.125 106.529 34.6956 108.579 35.8387L108.64 35.7295L108.701 35.6203C106.61 34.4547 104.269 33.875 101.688 33.875V34ZM108.64 35.7295V35.6045H108.639V35.7295V35.8545H108.64V35.7295ZM108.639 35.7295L108.578 35.839C110.636 36.9698 112.252 38.5377 113.426 40.5379L113.534 40.4746L113.642 40.4113C112.444 38.3719 110.795 36.7722 108.699 35.62L108.639 35.7295ZM113.534 40.4746L113.427 40.5382C114.614 42.5472 115.208 44.7857 115.208 47.25L115.333 47.25L115.458 47.25C115.458 44.7436 114.853 42.4607 113.642 40.411L113.534 40.4746ZM115.333 47.25L115.208 47.25C115.208 49.7293 114.614 51.9787 113.427 53.9832L113.534 54.0469L113.642 54.1106C114.854 52.0649 115.458 49.771 115.458 47.25L115.333 47.25ZM113.534 54.0469L113.623 53.9585L113.622 53.9575L113.533 54.0459L113.445 54.1343L113.446 54.1353L113.534 54.0469ZM113.533 54.0459L113.425 53.9827C112.251 55.9882 110.634 57.5557 108.577 58.6814L108.637 58.791L108.697 58.9007C110.794 57.7534 112.443 56.1539 113.641 54.1091L113.533 54.0459ZM108.637 58.791L108.576 58.6816C106.526 59.814 104.229 60.375 101.688 60.375V60.5V60.625C104.267 60.625 106.606 60.0552 108.697 58.9004L108.637 58.791ZM101.688 60.5L101.688 60.375C99.1407 60.375 96.8278 59.8091 94.7569 58.6612L94.6963 58.7705L94.6357 58.8798C96.747 60.0501 99.1023 60.625 101.687 60.625L101.688 60.5ZM94.6963 58.7705L94.7566 58.661C92.684 57.5202 91.0556 55.953 89.8851 53.9611L89.7773 54.0244L89.6696 54.0877C90.8636 56.1197 92.5253 57.7182 94.636 58.88L94.6963 58.7705ZM89.7773 54.0244H89.9023V54.0234H89.7773H89.6523V54.0244H89.7773ZM89.7773 54.0234L89.8849 53.9598C88.7079 51.9704 88.125 49.7271 88.125 47.25L88 47.25L87.875 47.25C87.875 49.768 88.468 52.0559 89.6698 54.0871L89.7773 54.0234ZM88 47.25L88.125 47.25C88.125 44.7872 88.7079 42.5539 89.885 40.5596L89.7773 40.4961L89.6697 40.4326C88.4682 42.4682 87.875 44.746 87.875 47.25L88 47.25ZM89.7773 40.4961L89.8853 40.5592C91.0557 38.5571 92.6844 36.9839 94.7568 35.8379L94.6963 35.7285L94.6358 35.6191C92.5253 36.7862 90.8633 38.3909 89.6694 40.433L89.7773 40.4961ZM94.6963 35.7285L94.7567 35.838C96.8268 34.6957 99.1399 34.125 101.688 34.125L101.688 34L101.687 33.875C99.1011 33.875 96.746 34.4548 94.6359 35.6191L94.6963 35.7285ZM68.8232 34L68.8232 34.125C69.7608 34.1252 70.5205 34.8856 70.5205 35.8232H70.6455H70.7705C70.7705 34.7476 69.899 33.8752 68.8233 33.875L68.8232 34ZM70.6455 35.8232H70.5205V55.2705H70.6455H70.7705V35.8232H70.6455ZM70.6455 55.2705L70.5205 55.2705C70.5207 56.1677 71.2483 56.8953 72.1455 56.8955L72.1455 56.7705L72.1455 56.6455C71.3864 56.6453 70.7707 56.0296 70.7705 55.2705L70.6455 55.2705ZM72.1455 56.7705V56.8955H83.042V56.7705V56.6455H72.1455V56.7705ZM83.042 56.7705L83.042 56.8955C83.8817 56.8957 84.5625 57.5771 84.5625 58.417H84.6875H84.8125C84.8125 57.4392 84.0199 56.6457 83.042 56.6455L83.042 56.7705ZM84.6875 58.417L84.5625 58.4169C84.5622 59.2565 83.8815 59.9373 83.042 59.9375L83.042 60.0625L83.042 60.1875C84.0197 60.1873 84.8121 59.3946 84.8125 58.417L84.6875 58.417ZM83.042 60.0625V59.9375H69.5V60.0625V60.1875H83.042V60.0625ZM69.5 60.0625L69.5 59.9375C68.1884 59.9375 67.1252 58.874 67.125 57.5625L67 57.5625L66.875 57.5625C66.8752 59.0121 68.0503 60.1875 69.5 60.1875L69.5 60.0625ZM67 57.5625H67.125V35.8232H67H66.875V57.5625H67ZM67 35.8232H67.125C67.125 34.8855 67.8855 34.125 68.8232 34.125L68.8232 34L68.8232 33.875C67.7474 33.875 66.875 34.7474 66.875 35.8232H67ZM161.6 34L161.6 34.125C162.529 34.1251 163.373 34.6677 163.759 35.5129L163.873 35.4609L163.987 35.409C163.56 34.4748 162.627 33.8751 161.6 33.875L161.6 34ZM163.873 35.4609L163.759 35.5129L173.864 57.6135L173.978 57.5615L174.091 57.5095L163.987 35.409L163.873 35.4609ZM173.978 57.5615L173.864 57.6135C174.36 58.7005 173.566 59.9372 172.371 59.9375L172.371 60.0625L172.371 60.1875C173.748 60.1872 174.663 58.7621 174.091 57.5096L173.978 57.5615ZM172.371 60.0625V59.9375C171.725 59.9375 171.138 59.5573 170.873 58.9674L170.759 59.0186L170.645 59.0697C170.95 59.7494 171.626 60.1875 172.371 60.1875V60.0625ZM170.759 59.0186L170.873 58.9674L168.739 54.2096L168.625 54.2607L168.511 54.3119L170.645 59.0697L170.759 59.0186ZM168.625 54.2607L168.739 54.2096C168.477 53.6255 167.896 53.25 167.256 53.25L167.256 53.375L167.256 53.5C167.798 53.5 168.289 53.8179 168.511 54.3119L168.625 54.2607ZM167.256 53.375V53.25H155.866V53.375V53.5H167.256V53.375ZM155.866 53.375L155.866 53.25C155.226 53.2501 154.646 53.6258 154.384 54.2096L154.498 54.2607L154.612 54.3119C154.834 53.818 155.325 53.5001 155.866 53.5L155.866 53.375ZM154.498 54.2607L154.384 54.2096L152.246 58.9742L152.36 59.0254L152.474 59.0766L154.612 54.3119L154.498 54.2607ZM152.36 59.0254L152.246 58.9742C151.983 59.5601 151.4 59.9375 150.758 59.9375L150.758 60.0625L150.758 60.1875C151.499 60.1875 152.171 59.7524 152.474 59.0766L152.36 59.0254ZM150.758 60.0625L150.758 59.9375C149.57 59.9373 148.78 58.7067 149.275 57.6263L149.161 57.5742L149.047 57.5222C148.477 58.7681 149.387 60.1872 150.758 60.1875L150.758 60.0625ZM149.161 57.5742L149.275 57.6263L159.405 35.511L159.291 35.459L159.177 35.4069L149.047 57.5222L149.161 57.5742ZM159.291 35.459L159.405 35.511C159.791 34.6666 160.635 34.1251 161.563 34.125L161.563 34L161.563 33.875C160.537 33.8751 159.605 34.4737 159.177 35.4069L159.291 35.459ZM161.563 34V34.125H161.6V34V33.875H161.563V34ZM181.823 34L181.823 34.125C182.761 34.1252 183.521 34.8856 183.521 35.8232H183.646H183.771C183.771 34.7476 182.899 33.8752 181.823 33.875L181.823 34ZM183.646 35.8232H183.521V55.2705H183.646H183.771V35.8232H183.646ZM183.646 55.2705L183.521 55.2705C183.521 56.1677 184.248 56.8953 185.145 56.8955L185.146 56.7705L185.146 56.6455C184.386 56.6453 183.771 56.0296 183.771 55.2705L183.646 55.2705ZM185.146 56.7705V56.8955H196.042V56.7705V56.6455H185.146V56.7705ZM196.042 56.7705L196.042 56.8955C196.882 56.8957 197.562 57.5771 197.562 58.417H197.688H197.812C197.812 57.4392 197.02 56.6457 196.042 56.6455L196.042 56.7705ZM197.688 58.417L197.563 58.4169C197.562 59.2565 196.882 59.9373 196.042 59.9375L196.042 60.0625L196.042 60.1875C197.02 60.1873 197.812 59.3946 197.812 58.417L197.688 58.417ZM196.042 60.0625V59.9375H182.5V60.0625V60.1875H196.042V60.0625ZM182.5 60.0625L182.5 59.9375C181.188 59.9375 180.125 58.874 180.125 57.5625L180 57.5625L179.875 57.5625C179.875 59.0121 181.05 60.1875 182.5 60.1875L182.5 60.0625ZM180 57.5625H180.125V35.8232H180H179.875V57.5625H180ZM180 35.8232H180.125C180.125 34.8855 180.886 34.125 181.823 34.125L181.823 34L181.823 33.875C180.747 33.875 179.875 34.7474 179.875 35.8232H180ZM101.688 37.375L101.687 37.25C99.7575 37.25 98.0244 37.6886 96.4751 38.556L96.5361 38.665L96.5972 38.7741C98.1065 37.9292 99.7971 37.5 101.688 37.5L101.688 37.375ZM96.5361 38.665L96.4668 38.561L96.4639 38.563L96.5332 38.667L96.6025 38.771L96.6055 38.769L96.5361 38.665ZM96.5332 38.667L96.4728 38.5575C94.9177 39.4154 93.7068 40.6018 92.8244 42.1258L92.9326 42.1885L93.0408 42.2511C93.9003 40.7665 95.078 39.6124 96.5936 38.7764L96.5332 38.667ZM92.9326 42.1885L92.8244 42.1259C91.9433 43.648 91.5 45.353 91.5 47.25L91.625 47.25L91.75 47.25C91.75 45.3938 92.1833 43.7325 93.0408 42.2511L92.9326 42.1885ZM91.625 47.25L91.5 47.25C91.5 49.1469 91.943 50.8626 92.8243 52.3953L92.9326 52.333L93.041 52.2707C92.183 50.7785 91.75 49.1062 91.75 47.25L91.625 47.25ZM92.9326 52.333L92.8254 52.3973L92.9924 52.6756L93.0996 52.6113L93.2068 52.547L93.0398 52.2687L92.9326 52.333ZM93.0996 52.6113L92.9935 52.6774C93.8595 54.0682 95.015 55.1705 96.4723 55.9841L96.5332 55.875L96.5941 55.7659C95.1734 54.9726 94.0492 53.8999 93.2057 52.5453L93.0996 52.6113ZM96.5332 55.875L96.4727 55.9844C98.0218 56.8416 99.7558 57.2705 101.687 57.2705L101.688 57.1455L101.688 57.0205C99.7944 57.0205 98.1026 56.6006 96.5937 55.7656L96.5332 55.875ZM101.688 57.1455V57.2705C103.613 57.2705 105.34 56.842 106.877 55.9862L106.816 55.877L106.756 55.7677C105.259 56.601 103.574 57.0205 101.688 57.0205V57.1455ZM106.816 55.877L106.878 55.9858C108.413 55.118 109.615 53.9218 110.487 52.3971L110.379 52.335L110.27 52.2729C109.42 53.7586 108.251 54.9224 106.755 55.7681L106.816 55.877ZM110.379 52.335H110.504V52.334H110.379H110.254V52.335H110.379ZM110.379 52.334L110.487 52.3963C111.369 50.8633 111.812 49.1473 111.812 47.25L111.688 47.25L111.562 47.25C111.562 49.1067 111.129 50.7792 110.271 52.2717L110.379 52.334ZM111.688 47.25L111.812 47.25C111.812 45.353 111.369 43.648 110.488 42.1259L110.38 42.1885L110.272 42.2511C111.129 43.7325 111.562 45.3938 111.562 47.25L111.688 47.25ZM110.38 42.1885L110.498 42.1489L110.497 42.146L110.379 42.1855L110.26 42.2251L110.261 42.228L110.38 42.1885ZM110.379 42.1855L110.487 42.1235C109.615 40.5995 108.414 39.4144 106.879 38.5569L106.818 38.666L106.757 38.7751C108.253 39.6107 109.421 40.7634 110.27 42.2476L110.379 42.1855ZM106.818 38.666L106.907 38.5776L106.906 38.5767L106.817 38.665L106.729 38.7534L106.73 38.7544L106.818 38.666ZM106.817 38.665L106.879 38.5561C105.34 37.6891 103.612 37.25 101.688 37.25V37.375V37.5C103.573 37.5 105.258 37.9296 106.756 38.7739L106.817 38.665ZM162.009 39.498L162.123 39.447C161.902 38.9535 161.202 38.9547 160.982 39.4481L161.096 39.499L161.21 39.5499C161.342 39.2536 161.762 39.2533 161.895 39.5491L162.009 39.498ZM161.096 39.499L160.982 39.4481L156.521 49.454L156.635 49.5049L156.749 49.5558L161.21 39.5499L161.096 39.499ZM156.635 49.5049L156.521 49.4541C156.337 49.8674 156.639 50.333 157.092 50.333V50.208V50.083C156.82 50.083 156.639 49.8036 156.749 49.5557L156.635 49.5049ZM157.092 50.208V50.333H166.028V50.208V50.083H157.092V50.208ZM166.028 50.208L166.028 50.333C166.481 50.3329 166.784 49.8664 166.599 49.4529L166.485 49.5039L166.371 49.5549C166.482 49.8027 166.3 50.083 166.028 50.083L166.028 50.208ZM166.485 49.5039L166.599 49.4529L162.123 39.447L162.009 39.498L161.895 39.5491L166.371 49.555L166.485 49.5039Z" fill="#3D3B3A"/>
<path d="M55.4791 48.6458C56.6198 46.7188 57.1875 44.5417 57.1875 42.125C57.1875 39.724 56.6198 37.5573 55.4791 35.625C54.3437 33.6823 52.7656 32.1563 50.75 31.0417C48.7395 29.9323 46.4895 29 44 29V31.375C46.5 31.375 47.7864 32.2031 49.3958 33.1042C51.0104 33.9948 52.2708 35.2292 53.1875 36.8125C54.1041 38.3958 54.5625 40.1667 54.5625 42.125C54.5625 44.0833 52.9166 46.2813 52 47.875L40.469 61.3278C40.1889 61.6546 40.1493 62.124 40.3708 62.493L42.7994 66.5408C42.8932 66.697 43.1172 66.7038 43.2201 66.5534L55.4791 48.6458Z" fill="#3D3B3A" stroke="#3D3B3A"/>
<path d="M31.7083 48.6458C30.5677 46.7188 30 44.5417 30 42.125C30 39.724 30.5677 37.5573 31.7083 35.625C32.8438 33.6823 34.4219 32.1563 36.4375 31.0417C38.4479 29.9323 40.5104 29 43 29V31.375C41.0104 31.375 39.401 32.2031 37.7917 33.1042C36.1771 33.9948 34.9167 35.2292 34 36.8125C33.0833 38.3958 32.625 40.1667 32.625 42.125C32.625 44.0833 33.0833 45.8646 34 47.4583C34.9167 49.0417 36.1771 50.2865 37.7917 51.1875C39.401 52.0781 42.0104 52.875 44 52.875L38.5 59.375L31.7083 48.6458Z" fill="#0085D3"/>
<path d="M44 52.875L44.3817 53.198C44.5075 53.0493 44.5355 52.8412 44.4536 52.6646C44.3717 52.488 44.1947 52.375 44 52.375V52.875ZM31.7083 48.6458L31.2781 48.9005L31.2819 48.9069L31.2859 48.9133L31.7083 48.6458ZM31.7083 35.625L32.1389 35.8792L32.14 35.8773L31.7083 35.625ZM36.4375 31.0417L36.1959 30.6039L36.1955 30.6041L36.4375 31.0417ZM43 29H43.5V28.5H43V29ZM43 31.375V31.875H43.5V31.375H43ZM37.7917 33.1042L38.0332 33.542L38.0359 33.5404L37.7917 33.1042ZM34 47.4583L33.5666 47.7076L33.5673 47.7089L34 47.4583ZM37.7917 51.1875L37.548 51.6241L37.5496 51.625L37.7917 51.1875ZM38.5 59.375L38.0775 59.6424C38.1627 59.7769 38.3068 59.8628 38.4655 59.8738C38.6243 59.8848 38.7789 59.8195 38.8817 59.698L38.5 59.375ZM31.7083 48.6458L32.1386 48.3912C31.0475 46.5478 30.5 44.46 30.5 42.125H30H29.5C29.5 44.6233 30.0879 46.8897 31.2781 48.9005L31.7083 48.6458ZM30 42.125H30.5C30.5 39.8065 31.0471 37.7287 32.1389 35.8792L31.7083 35.625L31.2778 35.3708C30.0883 37.3858 29.5 39.6415 29.5 42.125H30ZM31.7083 35.625L32.14 35.8773C33.2286 34.0147 34.7401 32.5516 36.6795 31.4792L36.4375 31.0417L36.1955 30.6041C34.1036 31.7609 32.4589 33.3499 31.2767 35.3727L31.7083 35.625ZM36.4375 31.0417L36.6791 31.4794C38.6711 30.3802 40.6413 29.5 43 29.5V29V28.5C40.3795 28.5 38.2247 29.4844 36.1959 30.6039L36.4375 31.0417ZM43 31.375V30.875C40.8678 30.875 39.1568 31.7668 37.5474 32.6679L37.7917 33.1042L38.0359 33.5404C39.6452 32.6394 41.1531 31.875 43 31.875V31.375ZM37.7917 33.1042L37.5502 32.6664C35.8564 33.6007 34.5297 34.8997 33.5673 36.562L34 36.8125L34.4327 37.063C35.3036 35.5587 36.4978 34.3889 38.0332 33.542L37.7917 33.1042ZM34 36.8125L33.5673 36.562C32.6034 38.2268 32.125 40.0851 32.125 42.125H32.625H33.125C33.125 40.2482 33.5632 38.5649 34.4327 37.063L34 36.8125ZM32.625 42.125H32.125C32.125 44.1647 32.6033 46.0329 33.5666 47.7076L34 47.4583L34.4334 47.209C33.5633 45.6963 33.125 44.002 33.125 42.125H32.625ZM34 47.4583L33.5673 47.7089C34.529 49.37 35.8547 50.6792 37.548 51.6241L37.7917 51.1875L38.0353 50.7509C36.4994 49.8938 35.3043 48.7133 34.4327 47.2078L34 47.4583ZM37.7917 51.1875L37.5496 51.625C39.2193 52.549 41.9113 53.375 44 53.375V52.875V52.375C42.1096 52.375 39.5828 51.6073 38.0338 50.75L37.7917 51.1875ZM31.7083 48.6458L31.2859 48.9133L38.0775 59.6424L38.5 59.375L38.9225 59.1076L32.1308 48.3784L31.7083 48.6458ZM38.5 59.375L38.8817 59.698L44.3817 53.198L44 52.875L43.6183 52.552L38.1183 59.052L38.5 59.375ZM43 29H42.5V31.375H43H43.5V29H43Z" fill="#0085D3"/>
<path d="M48.0142 34.4652C46.7128 33.7395 45.2512 33.375 43.6262 33.375V34.9285C44.9242 34.9285 46.0962 35.2249 47.1421 35.8143C48.1846 36.3969 49.0022 37.2043 49.595 38.24L51.094 37.4496C50.3479 36.1788 49.3224 35.184 48.0142 34.4652Z" fill="#3D3B3A"/>
<path d="M39.2109 48.9648C40.5259 49.6939 41.9977 50.055 43.6262 50.055C45.2512 50.055 46.7128 49.6973 48.0142 48.9784C49.3224 48.263 50.3479 47.2682 51.094 45.994C51.8469 44.7233 52.2251 43.2958 52.2251 41.715C52.2251 40.1444 51.8469 38.7238 51.094 37.4496L49.595 38.24C50.1946 39.2757 50.4944 40.434 50.4944 41.715C50.4944 42.996 50.1946 44.1611 49.595 45.2036C49.0022 46.2393 48.1846 47.0536 47.1421 47.6429C46.0962 48.2255 44.9242 48.5151 43.6262 48.5151C42.3248 48.5151 41.1494 48.2255 40.0967 47.6429C39.0405 47.0536 38.2161 46.2393 37.6165 45.2036C37.0169 44.1611 36.7171 42.996 36.7171 41.715C36.7171 40.434 37.0169 39.2757 37.6165 38.24C38.2161 37.2043 39.0405 36.3969 40.0967 35.8143C41.1494 35.2249 42.3248 34.9285 43.6262 34.9285V33.375C41.9977 33.375 40.5259 33.7395 39.2109 34.4652C37.8924 35.1943 36.8601 36.1925 36.1175 37.4632C35.3713 38.7272 35 40.1444 35 41.715C35 43.2958 35.3713 44.7199 36.1175 45.9804C36.8601 47.2443 37.8924 48.2391 39.2109 48.9648Z" fill="#3D3B3A"/>
<path d="M322.565 52.0548C321.489 52.0548 320.692 52.2211 320.174 52.5537C319.656 52.8863 319.396 53.4341 319.396 54.1971C319.396 54.921 319.656 55.4982 320.174 55.9286C320.712 56.359 321.441 56.5742 322.363 56.5742C323.189 56.5742 323.928 56.4275 324.581 56.134C325.233 55.8406 325.752 55.4493 326.136 54.9602V54.9602C326.299 54.7438 327.081 54.7859 327.14 55.0505L327.348 55.9874C327.365 56.0634 327.357 56.1431 327.322 56.2128C326.842 57.1763 326.13 57.9032 325.185 58.3937C324.206 58.9024 323.035 59.1567 321.672 59.1567C320.577 59.1567 319.627 58.9415 318.82 58.5111C318.014 58.0807 317.39 57.5035 316.948 56.7797C316.507 56.0362 316.286 55.2145 316.286 54.3145C316.286 52.9059 316.785 51.7809 317.784 50.9397C318.801 50.0984 320.232 49.668 322.075 49.6484H325.941C326.605 49.6484 327.144 50.1871 327.144 50.8516V50.8516C327.144 51.5161 326.605 52.0548 325.941 52.0548H322.565ZM326.712 49.1202C326.712 48.1028 326.405 47.3105 325.79 46.7431C325.176 46.1757 324.264 45.892 323.054 45.892C322.325 45.892 321.576 46.029 320.808 46.3029C320.425 46.4428 320.04 46.616 319.652 46.8223C319.021 47.1584 318.216 46.999 317.838 46.3919V46.3919C317.473 45.8066 317.646 45.0314 318.25 44.699C318.574 44.5208 318.889 44.3609 319.195 44.2193C319.828 43.9258 320.5 43.7008 321.211 43.5443C321.94 43.3878 322.795 43.3095 323.774 43.3095C325.752 43.3095 327.269 43.7986 328.325 44.7769C329.4 45.7355 329.947 47.0659 329.966 48.768L329.991 57.3781C329.993 58.2786 329.264 59.01 328.363 59.01V59.01C327.466 59.01 326.739 58.2843 326.736 57.3874L326.712 49.1202Z" fill="#3D3B3A"/>
<path d="M334.429 45.0686C334.429 44.1619 335.164 43.4269 336.07 43.4269V43.4269C336.977 43.4269 337.712 44.1619 337.712 45.0686V57.5151C337.712 58.4217 336.977 59.1567 336.07 59.1567V59.1567C335.164 59.1567 334.429 58.4217 334.429 57.5151V45.0686ZM336.07 37C336.627 37 337.088 37.1859 337.453 37.5576C337.818 37.9293 338 38.3989 338 38.9662C338 39.514 337.818 39.9836 337.453 40.3749C337.088 40.7466 336.627 40.9325 336.07 40.9325C335.533 40.9325 335.072 40.7466 334.688 40.3749C334.323 39.9836 334.141 39.514 334.141 38.9662C334.141 38.3989 334.323 37.9293 334.688 37.5576C335.072 37.1859 335.533 37 336.07 37Z" fill="#3D3B3A"/>
<path d="M322.565 52.0548C321.489 52.0548 320.692 52.2211 320.174 52.5537C319.656 52.8863 319.396 53.4341 319.396 54.1971C319.396 54.921 319.656 55.4982 320.174 55.9286C320.712 56.359 321.441 56.5742 322.363 56.5742C323.189 56.5742 323.928 56.4275 324.581 56.134C325.233 55.8406 325.752 55.4493 326.136 54.9602V54.9602C326.299 54.7438 327.081 54.7859 327.14 55.0505L327.348 55.9874C327.365 56.0634 327.357 56.1431 327.322 56.2128C326.842 57.1763 326.13 57.9032 325.185 58.3937C324.206 58.9024 323.035 59.1567 321.672 59.1567C320.577 59.1567 319.627 58.9415 318.82 58.5111C318.014 58.0807 317.39 57.5035 316.948 56.7797C316.507 56.0362 316.286 55.2145 316.286 54.3145C316.286 52.9059 316.785 51.7809 317.784 50.9397C318.801 50.0984 320.232 49.668 322.075 49.6484H325.941C326.605 49.6484 327.144 50.1871 327.144 50.8516V50.8516C327.144 51.5161 326.605 52.0548 325.941 52.0548H322.565ZM326.712 49.1202C326.712 48.1028 326.405 47.3105 325.79 46.7431C325.176 46.1757 324.264 45.892 323.054 45.892C322.325 45.892 321.576 46.029 320.808 46.3029C320.425 46.4428 320.04 46.616 319.652 46.8223C319.021 47.1584 318.216 46.999 317.838 46.3919V46.3919C317.473 45.8066 317.646 45.0314 318.25 44.699C318.574 44.5208 318.889 44.3609 319.195 44.2193C319.828 43.9258 320.5 43.7008 321.211 43.5443C321.94 43.3878 322.795 43.3095 323.774 43.3095C325.752 43.3095 327.269 43.7986 328.325 44.7769C329.4 45.7355 329.947 47.0659 329.966 48.768L329.991 57.3781C329.993 58.2786 329.264 59.01 328.363 59.01V59.01C327.466 59.01 326.739 58.2843 326.736 57.3874L326.712 49.1202Z" stroke="#3D3B3A" stroke-width="0.25"/>
<path d="M334.429 45.0686C334.429 44.1619 335.164 43.4269 336.07 43.4269V43.4269C336.977 43.4269 337.712 44.1619 337.712 45.0686V57.5151C337.712 58.4217 336.977 59.1567 336.07 59.1567V59.1567C335.164 59.1567 334.429 58.4217 334.429 57.5151V45.0686ZM336.07 37C336.627 37 337.088 37.1859 337.453 37.5576C337.818 37.9293 338 38.3989 338 38.9662C338 39.514 337.818 39.9836 337.453 40.3749C337.088 40.7466 336.627 40.9325 336.07 40.9325C335.533 40.9325 335.072 40.7466 334.688 40.3749C334.323 39.9836 334.141 39.514 334.141 38.9662C334.141 38.3989 334.323 37.9293 334.688 37.5576C335.072 37.1859 335.533 37 336.07 37Z" stroke="#3D3B3A" stroke-width="0.25"/>
<path d="M308.477 54.3383C309.185 54.3383 309.774 54.5723 310.246 55.0404C310.718 55.4825 310.954 56.0676 310.954 56.7957C310.954 57.5238 310.718 58.1219 310.246 58.59C309.774 59.0581 309.185 59.2921 308.477 59.2921C307.769 59.2921 307.179 59.0581 306.708 58.59C306.236 58.1219 306 57.5238 306 56.7957C306 56.0676 306.236 55.4825 306.708 55.0404C307.179 54.5723 307.769 54.3383 308.477 54.3383Z" fill="#3D3B3A" stroke="#3D3B3A" stroke-width="0.25"/>
</svg>
